<svg width="21" height="20" viewBox="0 0 21 20" fill="none" xmlns="http://www.w3.org/2000/svg">
<g clip-path="url(#clip0_16894_27358)">
<path d="M14.6673 1.00687L15.7663 3.06756L17.8269 4.16659L15.7663 5.26562L14.6673 7.32632L13.5682 5.26562L11.5075 4.16659L13.5682 3.06756L14.6673 1.00687ZM9.38942 7.7777L13.5561 9.99991L9.38942 12.2222L7.16721 16.3888L4.94498 12.2222L0.77832 9.99991L4.94498 7.7777L7.16721 3.61103L9.38942 7.7777ZM10.0144 9.99991L8.15754 9.00957L7.16721 7.1527L6.17687 9.00957L4.31998 9.99991L6.17687 10.9902L7.16721 12.8472L8.15754 10.9902L10.0144 9.99991ZM16.8894 13.6111L15.5006 11.0069L14.1117 13.6111L11.5075 14.9999L14.1117 16.3888L15.5006 18.993L16.8894 16.3888L19.4936 14.9999L16.8894 13.6111Z" fill="#A31F34"/>
</g>
<defs>
<clipPath id="clip0_16894_27358">
<rect width="20" height="20" fill="white" transform="translate(0.5)"/>
</clipPath>
</defs>
</svg>
